<?xml version="1.0" encoding="UTF-8"?>
<svg id="Ebene_1" data-name="Ebene 1" xmlns="http://www.w3.org/2000/svg" version="1.1" viewBox="0 0 600 600">
  <g>
    <polygon points="289.83 124.28 309.68 124.28 309.68 19.88 600 19.88 600 0 0 0 0 19.88 289.83 19.88 289.83 124.28" fill="#fff" stroke-width="0"/>
    <path d="M580.15,47.23v252.27c0,60.47-18.97,118.01-54.08,165.82V46.73h-19.85v411.88l-198.27-305.5h-15.38L82.74,476.69c-40.73-49.92-62.89-111.85-62.89-177.2H0c0,80.27,31.21,155.73,87.87,212.49,56.66,56.76,132,88.02,212.13,88.02s155.47-31.26,212.13-88.02c56.66-56.76,87.87-132.22,87.87-212.49V47.23h-19.85ZM289.83,376.81h-119.69l119.69-187.3v187.3ZM96.38,492.22l61.05-95.53h132.4v183.22c-71.02-2.52-137.42-31.4-187.93-81.99-1.87-1.88-3.71-3.78-5.52-5.7ZM309.68,579.93V187.95l194.24,303.94c-1.91,2.03-3.85,4.04-5.83,6.03-50.62,50.71-117.21,79.6-188.41,82.01Z" fill="#fff" stroke-width="0"/>
  </g>
  <circle cx="557.5" cy="557.5" r="42.5" fill="#0cf25d" stroke-width="0"/>
</svg>