<?xml version="1.0" encoding="UTF-8"?>
<svg xmlns="http://www.w3.org/2000/svg" version="1.1" viewBox="0 0 24 24">
  <!-- Generator: Adobe Illustrator 28.7.1, SVG Export Plug-In . SVG Version: 1.2.0 Build 142)  -->
  <g>
    <g id="Ebene_1">
      <path d="M.58,4.1c.05-.23.09-.46.17-.69.39-1.24,1.27-2.01,2.42-2.52.19-.08.39-.16.58-.21.4-.11.7.19.58.58-.23.77.03,1.35.62,1.83.72.59,1.56.9,2.44,1.14.09.03.19.04.28.07.24.08.38.3.31.54-.51,1.7.27,2.92,1.51,3.95.36.3.36.35.23.81-.07.25-.1.55-.04.81.18.77.73,1.3,1.31,1.83.22-.43.41-.84.62-1.24.07-.13.17-.26.29-.36.92-.76,1.77-1.59,2.45-2.58.51-.75.89-1.54.92-2.47,0-.24.18-.39.46-.42.32-.03.64-.06.96-.08,1.36-.06,2.7.02,4.01.46.58.2,1.12.48,1.59.87.5.42.86.94,1.06,1.57.02.07.06.13.09.2v.31c-.14.23-.35.29-.61.32-1.1.12-2.09.7-2.11,2.19,0,.31-.16.49-.45.51-.98.08-1.72.57-2.3,1.32-.42.54-.68,1.17-.86,1.82-.13.46-.31.56-.77.4-.84-.28-1.66-.15-2.47.13-.36.13-.7.3-1.07.47.67.84.94,1.76.9,2.78-.01.33-.05.68.01,1,.21,1.05,1.26,1.6,2.26,1.23.54-.2.95-.55,1.23-1.05.44-.81,1.15-1.31,1.95-1.7.34-.17.66.08.65.47-.04,1.68-.69,3.01-2.17,3.9-1.06.63-2.18,1.01-3.41,1.02-.51,0-1.03.04-1.54-.04-.97-.16-1.66-.76-2.18-1.57-.1-.15-.2-.21-.37-.2-.24.01-.48,0-.71,0-.44,0-.6-.17-.58-.6,0-.14.03-.28.04-.42.02-.28-.07-.52-.3-.7-.45-.35-.88-.7-1.32-1.06-.29-.23-.32-.45-.09-.75.33-.45.67-.89,1.02-1.35-.11-.09-.21-.17-.32-.25-.4-.31-.65-.71-.71-1.22-.02-.19-.09-.32-.26-.4-.27-.13-.52-.28-.79-.4-.07-.03-.19,0-.25.04-.33.24-.69.38-1.1.35-.16-.01-.23.03-.28.19-.21.65-.21.65-.89.65-.36,0-.71,0-1.07,0-.27,0-.45-.16-.46-.42-.1-1.44.11-2.82.96-4.04.41-.59.93-1.04,1.57-1.36.4-.2.72,0,.72.45,0,.27,0,.55,0,.84.24.02.47.04.71.06-.31-1.13-.81-2.13-1.57-2.99-.89-1-1.97-1.71-3.27-2.06-.23-.06-.37-.2-.42-.44-.04-.22-.09-.45-.14-.67,0-.3,0-.6,0-.89ZM8.09,18.27c.33.26.63.51.94.75.04.03.1.03.15.04,0-.06.04-.13.01-.17-.25-.49-.31-1-.11-1.53-.07-.05-.13-.09-.2-.14-.26.35-.52.69-.8,1.05ZM12.79,22.41c-.22-.25-.52-.57-.79-.9-.27-.33-.52-.69-.79-1.04-.16.39-.15.48.08.81.11.16.23.31.36.45.35.36.75.62,1.14.67Z" fill="#fff"/>
    </g>
  </g>
</svg>