<?xml version="1.0" encoding="UTF-8"?>
<svg xmlns="http://www.w3.org/2000/svg" version="1.1" viewBox="0 0 24 24">
  <!-- Generator: Adobe Illustrator 28.7.1, SVG Export Plug-In . SVG Version: 1.2.0 Build 142)  -->
  <g>
    <g id="Ebene_1">
      <g id="Ebene_1-2" data-name="Ebene_1">
        <path d="M22.55,9.69c-.84-.84-1.67-1.68-2.52-2.52.58-1.13,1.16-2.26,1.73-3.4.06-.12.2-.45.14-.81-.06-.34-.26-.62-.56-.77-.33-.17-.72-.16-1.08.03-1.14.58-2.28,1.16-3.42,1.76-.82-.83-1.65-1.65-2.48-2.48-.1-.1-.21-.2-.35-.28-.35-.19-.76-.18-1.08.02-.36.22-.56.63-.54,1.09l.04,1.21c.02.71.04,1.41.07,2.12l-3.19,2.15c-.54.37-.59.82-.54,1.14.08.48.4.81.91.93.28.07.56.14.84.21L1.49,19.09c-.54.54-.54,1.19,0,1.73l1.65,1.65c.19.19.5.45.91.45h0c.41,0,.71-.26.91-.45,2.99-2.99,5.97-5.97,8.96-8.96.07.29.15.58.22.87.06.24.2.46.37.62.23.21.52.31.83.27.33-.04.63-.24.84-.54.72-1.06,1.45-2.13,2.17-3.2,1.1.04,2.21.08,3.31.1.28-.01.59-.08.81-.23.26-.18.42-.45.45-.76.03-.34-.1-.68-.37-.95ZM10.55,13.18c.83-.83,1.65-1.65,2.48-2.47h0c.16,0,.23,0,.27.27-1.2,1.19-2.4,2.39-3.59,3.59l-.16.16c-.06-.12-.13-.24-.19-.36,0,0,1.19-1.19,1.19-1.19ZM14.68,4.97l1.06,1.06c.47.46.91.54,1.49.24l1.03-.52-.52,1.02c-.3.59-.23,1.03.23,1.49l1.06,1.06c-.37-.01-.74-.02-1.11-.04-.5-.03-.87.17-1.14.58-.36.54-.72,1.07-1.08,1.61l-.44-1.79c-.1-.48-.43-.81-.91-.92-.6-.15-1.2-.3-1.81-.45l.85-.58c.24-.16.48-.33.72-.48.43-.27.63-.67.61-1.18-.02-.36-.03-.73-.04-1.09h0ZM7.71,16.02c.06.12.12.24.19.36-.22.22-.43.44-.66.66-.06-.12-.12-.24-.19-.36.22-.22.43-.44.66-.66ZM5.41,18.37c.06.11.11.22.17.33-.5.51-1.01,1.01-1.51,1.51l-.25-.25,1.59-1.59Z" fill="#fff"/>
      </g>
    </g>
  </g>
</svg>