<?xml version="1.0" encoding="UTF-8"?>
<svg xmlns="http://www.w3.org/2000/svg" version="1.1" viewBox="0 0 24 24">
  <!-- Generator: Adobe Illustrator 28.7.1, SVG Export Plug-In . SVG Version: 1.2.0 Build 142)  -->
  <g>
    <g id="Ebene_1">
      <g>
        <path d="M21.76,19.32l-.1-2.35c-.08-1.91-.16-3.83-.25-5.74l-.03-.6c-.03-.82-.07-1.67-.19-2.51-.57-3.79-3.61-6.93-7.4-7.62-.26-.05-.52-.08-.78-.12l-.33-.05h-1.23s-.33.02-.33.02c-.18.02-.36.04-.54.07-1.92.31-3.58,1.12-4.95,2.4-1.76,1.66-2.74,3.69-2.92,6.05-.08,1.05-.12,2.09-.16,3.14l-.05,1.29c-.07,1.48-.13,2.95-.19,4.43l-.04.91c-.04.88-.08,1.76-.1,2.64-.02.67.27,1.3.78,1.74.52.44,1.21.63,1.88.5.23-.04.45-.09.68-.13l1.95-.39c.45-.09.93,0,1.37.1.6.14,1.21.27,1.82.4l.78.17,1.17.02.8-.21c.6-.12,1.2-.25,1.8-.39.59-.15,1.14-.15,1.67-.03.58.14,1.17.25,1.75.36l.45.09c.75.14,1.46-.02,1.99-.47.53-.45.81-1.12.79-1.88-.02-.61-.04-1.22-.07-1.83ZM13.31,20.71c-.27.06-.54.12-.81.18-.47.11-.98.01-1.59-.13-.36-.08-.72-.16-1.08-.24l-.87-.19c-.33-.08-.65-.1-.96-.1-.65,0-1.25.13-1.76.24-.44.09-.88.18-1.32.27l.31-6.99c.02-.49.04-.98.05-1.47.03-1.07.07-2.18.17-3.24.23-2.35,1.41-4.1,3.5-5.21,3.23-1.7,7.13-.5,8.87,2.73.48.89.74,1.89.78,3.04.05,1.34.11,2.69.17,4.03l.31,7.11h-.06c-.52-.11-1.05-.21-1.56-.33-.96-.23-1.96-.21-3.04.07-.37.1-.74.17-1.11.26Z" fill="#fff"/>
        <path d="M17.52,13.35c.61-.9.86-1.98.76-3.2-.09-.98-.41-1.82-.98-2.49-.58-.7-1.38-1.06-2.2-1.06-.82.01-1.62.42-2.17,1.12-.56.7-.86,1.56-.93,2.54-.06-.84-.3-1.61-.74-2.27-.58-.89-1.46-1.4-2.4-1.4h0c-.94,0-1.82.51-2.41,1.4-.49.74-.74,1.61-.76,2.65v.03c.02,1.06.27,1.94.78,2.68.59.86,1.46,1.36,2.38,1.36h.01c.93,0,1.8-.51,2.39-1.39.44-.66.69-1.43.75-2.29.08.92.31,1.66.74,2.31.59.87,1.46,1.37,2.39,1.37s1.8-.49,2.38-1.36ZM8.79,9.42s.06-.06.06-.08c.02.01.04.04.07.07.19.23.3.54.35.98,0,.06,0,.11,0,.17v.1c0,.38-.07.7-.21.98-.03.07-.07.14-.12.2-.05.06-.09.1-.09.12-.03-.02-.07-.06-.11-.12-.43-.59-.43-1.79.03-2.42ZM15.53,10.21c.1.57.03,1.07-.21,1.51-.12.21-.18.26-.17.26,0,0-.07-.05-.19-.27-.16-.29-.24-.63-.24-1.04h0c0-.42.07-.75.23-1.04.06-.1.12-.19.21-.25.19.19.3.44.37.83Z" fill="#fff"/>
      </g>
    </g>
  </g>
</svg>