<?xml version="1.0" encoding="UTF-8"?>
<svg xmlns="http://www.w3.org/2000/svg" version="1.1" viewBox="0 0 24 24">
  <!-- Generator: Adobe Illustrator 28.7.1, SVG Export Plug-In . SVG Version: 1.2.0 Build 142)  -->
  <g>
    <g id="Ebene_1">
      <path d="M21.6,10.04l-3.56-.59c0-.15,0-.29,0-.43l3.95-4.11c.22-.23.33-.5.32-.82,0-.38,0-.76,0-1.14v-.56c0-.6-.29-.89-.89-.89h-1.71c-2.86,0-5.71,0-8.57,0-.31,0-.57.11-.78.33-.68.72-1.36,1.43-2.05,2.14l-1.61,1.68c-1.57,1.64-3.15,3.28-4.72,4.92-.11.12-.29.35-.3.65-.01.55-.01,1.1,0,1.65v.29c0,.43.28.74.71.79l3.56.59c0,.14,0,.29-.01.45-1.32,1.37-2.64,2.74-3.95,4.12-.14.15-.29.41-.3.69-.01.53-.01,1.07,0,1.6v.26c0,.52.31.83.84.83h2.28c2.7,0,5.4,0,8.1,0,.25,0,.53-.12.7-.3,2.82-2.93,5.63-5.86,8.44-8.8.17-.17.27-.43.28-.68.01-.51,0-1.01,0-1.52v-.3c0-.5-.23-.77-.72-.85ZM6.65,19.79c.59-.1.8-.34.8-.93v-4.81c0-.56-.21-.8-.76-.9l-3.51-.58v-.62h9.04v.62l-3.59.59c-.42.07-.68.37-.67.79,0,1.67,0,3.34,0,5.02,0,.21.07.7.73.81l3.54.58v.62H3.18c0-.21,0-.41,0-.62,1.16-.2,2.31-.39,3.47-.58ZM19.81,3c-2.38,2.48-4.77,4.97-7.11,7.43-2.7,0-5.39,0-8.08,0h-.43l7.09-7.44c2.64,0,5.27,0,7.91,0h.62ZM4.53,18.63l1.42-1.48v1.25s-1.42.23-1.42.23ZM9.48,18.39v-3.84l2.35-.39c.38-.06.77-.12,1.15-.2.24-.05.49-.18.66-.36,1.01-1.04,2.01-2.09,3.01-3.13.11.2.31.32.62.37l2.78.46-1.04,1.09c-2.09,2.18-4.18,4.35-6.28,6.55-.84-.14-1.68-.28-2.52-.42l-.73-.12Z" fill="#fff"/>
    </g>
  </g>
</svg>